<svg xmlns="http://www.w3.org/2000/svg" xmlns:xlink="http://www.w3.org/1999/xlink" viewBox="0 0 11.15 11">
  <defs>
    <style>
      .cls-1 {
        fill: #008300;
      }

      .cls-2 {
        clip-path: url(#clip-path);
      }

      .cls-3 {
        clip-path: url(#clip-path-2);
      }
    </style>
    <clipPath id="clip-path">
      <path id="Path_135" data-name="Path 135" class="cls-1" d="M589.2,517.5l-4.9,4.9-4.9-4.9a.354.354,0,0,0-.5.5l4.9,4.9-4.9,4.9a.454.454,0,0,0,0,.5.5.5,0,0,0,.6,0l4.9-4.9,4.9,4.9a.5.5,0,0,0,.6,0,.454.454,0,0,0,0-.5l-4.9-4.9,4.9-4.9a.454.454,0,0,0,0-.5.367.367,0,0,0-.3-.1.6.6,0,0,0-.4.1"/>
    </clipPath>
    <clipPath id="clip-path-2">
      <rect id="Rectangle_35" data-name="Rectangle 35" class="cls-1" width="807.4" height="750.7" transform="translate(-573.8 -512.3)"/>
    </clipPath>
  </defs>
  <g id="Group_66" data-name="Group 66" transform="translate(-578.825 -517.4)">
    <g id="Group_65" data-name="Group 65" class="cls-2">
      <g id="Group_64" data-name="Group 64" class="cls-3" transform="translate(573.8 512.3)">
        <rect id="Rectangle_34" data-name="Rectangle 34" class="cls-1" width="21" height="21"/>
      </g>
    </g>
  </g>
</svg>
